<svg width="17" height="17" viewBox="0 0 17 17" fill="none" xmlns="http://www.w3.org/2000/svg">
<path d="M8.4999 0.944458C7.00555 0.944458 5.54476 1.38758 4.30225 2.2178C3.05975 3.04801 2.09133 4.22803 1.51947 5.60863C0.94761 6.98922 0.797984 8.50839 1.08952 9.97403C1.38105 11.4397 2.10065 12.7859 3.15731 13.8426C4.21397 14.8993 5.56025 15.6189 7.02588 15.9104C8.49151 16.2019 10.0107 16.0523 11.3913 15.4804C12.7719 14.9086 13.9519 13.9402 14.7821 12.6977C15.6123 11.4552 16.0555 9.99436 16.0555 8.50001C16.0555 6.49616 15.2594 4.57437 13.8425 3.15743C12.4255 1.74049 10.5038 0.944458 8.4999 0.944458ZM9.79851 9.7089H7.08323V10.3889H10.998C11.1232 10.3889 11.2433 10.4387 11.3319 10.5272C11.4204 10.6158 11.4702 10.7359 11.4702 10.8611C11.4702 10.9864 11.4204 11.1065 11.3319 11.195C11.2433 11.2836 11.1232 11.3333 10.998 11.3333H7.08323V13.6945C7.08323 13.851 7.02104 14.0011 6.91034 14.1118C6.79964 14.2225 6.6495 14.2847 6.49295 14.2847C6.3364 14.2847 6.18626 14.2225 6.07556 14.1118C5.96486 14.0011 5.90267 13.851 5.90267 13.6945V11.3333H5.3124C5.18715 11.3333 5.06704 11.2836 4.97848 11.195C4.88992 11.1065 4.84017 10.9864 4.84017 10.8611C4.84017 10.7359 4.88992 10.6158 4.97848 10.5272C5.06704 10.4387 5.18715 10.3889 5.3124 10.3889H5.88378V9.7089H5.3124C5.15584 9.7089 5.0057 9.64671 4.89501 9.53601C4.78431 9.42532 4.72212 9.27518 4.72212 9.11862C4.72212 8.96207 4.78431 8.81193 4.89501 8.70124C5.0057 8.59054 5.15584 8.52835 5.3124 8.52835H5.88378V3.77779C5.88378 3.62124 5.94597 3.4711 6.05667 3.3604C6.16737 3.2497 6.31751 3.18751 6.47406 3.18751H9.77962C10.6724 3.1595 11.5398 3.48687 12.1914 4.09777C12.843 4.70866 13.2256 5.55314 13.2552 6.44585C13.2256 7.3356 12.8457 8.17764 12.1984 8.78875C11.551 9.39986 10.6885 9.73056 9.79851 9.7089Z" fill="black"/>
</svg>
